<mxfile host="app.diagrams.net" agent="Mozilla/5.0 (Windows NT 10.0; Win64; x64) AppleWebKit/537.36 (KHTML, like Gecko) Chrome/133.0.0.0 Safari/537.36" version="26.1.0">
  <diagram id="hHKkMgGqK1XD0hG-bqo5" name="Страница — 1">
    <mxGraphModel dx="521" dy="522" grid="1" gridSize="10" guides="1" tooltips="1" connect="1" arrows="1" fold="1" page="1" pageScale="1" pageWidth="827" pageHeight="1169" math="0" shadow="0">
      <root>
        <mxCell id="0" />
        <mxCell id="1" parent="0" />
        <mxCell id="k07XJNTcaq4PY4n5c5DB-1" value="Templ" style="swimlane;fontStyle=1;align=center;verticalAlign=top;childLayout=stackLayout;horizontal=1;startSize=26;horizontalStack=0;resizeParent=1;resizeParentMax=0;resizeLast=0;collapsible=1;marginBottom=0;whiteSpace=wrap;html=1;" vertex="1" parent="1">
          <mxGeometry x="20" y="190" width="200" height="160" as="geometry" />
        </mxCell>
        <mxCell id="k07XJNTcaq4PY4n5c5DB-2" value="- name : string&lt;div&gt;- content : string&lt;/div&gt;&lt;div&gt;&lt;br&gt;&lt;/div&gt;" style="text;strokeColor=none;fillColor=none;align=left;verticalAlign=top;spacingLeft=4;spacingRight=4;overflow=hidden;rotatable=0;points=[[0,0.5],[1,0.5]];portConstraint=eastwest;whiteSpace=wrap;html=1;" vertex="1" parent="k07XJNTcaq4PY4n5c5DB-1">
          <mxGeometry y="26" width="200" height="44" as="geometry" />
        </mxCell>
        <mxCell id="k07XJNTcaq4PY4n5c5DB-3" value="" style="line;strokeWidth=1;fillColor=none;align=left;verticalAlign=middle;spacingTop=-1;spacingLeft=3;spacingRight=3;rotatable=0;labelPosition=right;points=[];portConstraint=eastwest;strokeColor=inherit;" vertex="1" parent="k07XJNTcaq4PY4n5c5DB-1">
          <mxGeometry y="70" width="200" height="8" as="geometry" />
        </mxCell>
        <mxCell id="k07XJNTcaq4PY4n5c5DB-4" value="+Temp(string, string)&lt;div&gt;+clone() : shared_ptr&amp;lt;Templ&amp;gt;&lt;/div&gt;&lt;div&gt;+display(): void&lt;/div&gt;&lt;div&gt;+saveToFile(string) : void&lt;/div&gt;&lt;div&gt;+setDocContent(string) : void&lt;/div&gt;" style="text;strokeColor=none;fillColor=none;align=left;verticalAlign=top;spacingLeft=4;spacingRight=4;overflow=hidden;rotatable=0;points=[[0,0.5],[1,0.5]];portConstraint=eastwest;whiteSpace=wrap;html=1;" vertex="1" parent="k07XJNTcaq4PY4n5c5DB-1">
          <mxGeometry y="78" width="200" height="82" as="geometry" />
        </mxCell>
        <mxCell id="k07XJNTcaq4PY4n5c5DB-5" value="DocumentManager" style="swimlane;fontStyle=1;align=center;verticalAlign=top;childLayout=stackLayout;horizontal=1;startSize=26;horizontalStack=0;resizeParent=1;resizeParentMax=0;resizeLast=0;collapsible=1;marginBottom=0;whiteSpace=wrap;html=1;" vertex="1" parent="1">
          <mxGeometry x="340" y="190" width="280" height="170" as="geometry" />
        </mxCell>
        <mxCell id="k07XJNTcaq4PY4n5c5DB-6" value="-map&amp;lt;string, shared_ptr&amp;lt;Templ&amp;gt;&amp;gt;" style="text;strokeColor=none;fillColor=none;align=left;verticalAlign=top;spacingLeft=4;spacingRight=4;overflow=hidden;rotatable=0;points=[[0,0.5],[1,0.5]];portConstraint=eastwest;whiteSpace=wrap;html=1;" vertex="1" parent="k07XJNTcaq4PY4n5c5DB-5">
          <mxGeometry y="26" width="280" height="54" as="geometry" />
        </mxCell>
        <mxCell id="k07XJNTcaq4PY4n5c5DB-7" value="" style="line;strokeWidth=1;fillColor=none;align=left;verticalAlign=middle;spacingTop=-1;spacingLeft=3;spacingRight=3;rotatable=0;labelPosition=right;points=[];portConstraint=eastwest;strokeColor=inherit;" vertex="1" parent="k07XJNTcaq4PY4n5c5DB-5">
          <mxGeometry y="80" width="280" height="8" as="geometry" />
        </mxCell>
        <mxCell id="k07XJNTcaq4PY4n5c5DB-8" value="+loadTemplatesFromFiles() : void&lt;div&gt;+addTemplate(string, shared_ptr&amp;lt;Templ&amp;gt;)&lt;/div&gt;&lt;div&gt;+createDocument(string) : shared_ptr&amp;lt;Templ&amp;gt;&lt;/div&gt;&lt;div&gt;+getAvailableTemplates() : vector&amp;lt;string&amp;gt;&lt;/div&gt;&lt;div&gt;+saveTemplateToFile(string, string) : void&lt;/div&gt;" style="text;strokeColor=none;fillColor=none;align=left;verticalAlign=top;spacingLeft=4;spacingRight=4;overflow=hidden;rotatable=0;points=[[0,0.5],[1,0.5]];portConstraint=eastwest;whiteSpace=wrap;html=1;" vertex="1" parent="k07XJNTcaq4PY4n5c5DB-5">
          <mxGeometry y="88" width="280" height="82" as="geometry" />
        </mxCell>
      </root>
    </mxGraphModel>
  </diagram>
</mxfile>
